# xmcd CD database file
#
# Track frame offsets:
#	150
#	44200
#	86295
#	126164
#	166820
#	217989
#	255207
#
# Disc length: 3830 seconds
#
# Revision: 0
# Processed by: cddbd v1.5.2PL0 Copyright (c) Steve Scherf et al.
# Submitted via: CDex 1.70beta2
#
DISCID=540ef407
DTITLE=DJ Tiesto - Just Be Remixed CD2
DYEAR=2005
DGENRE=New Age
TTITLE0=Just Be (Antillas Club Mix)
TTITLE1=Just Be (Antillas Dub Mix)
TTITLE2=Just Be (514 Mix)
TTITLE3=Just Be (Wally Lopez La Factoria Vocal Remix)
TTITLE4=Adagio For Strings (Danjo and Styles Remix)
TTITLE5=Adagio For Strings (Phynn Remix)
TTITLE6=Adagio For Strings (Fred Baker Remix)
EXTD=YEAR: 2005
EXTT0=
EXTT1=
EXTT2=
EXTT3=
EXTT4=
EXTT5=
EXTT6=
PLAYORDER=
